<svg width="412" height="411" viewBox="0 0 412 411" fill="none" xmlns="http://www.w3.org/2000/svg">
<ellipse cx="206" cy="205.496" rx="195" ry="194.496" fill="#9AEBF4" fill-opacity="0.97"/>
<path d="M206 405.492C316.72 405.492 406.5 315.964 406.5 205.496C406.5 95.0279 316.72 5.5 206 5.5C95.2803 5.5 5.5 95.0279 5.5 205.496C5.5 315.964 95.2803 405.492 206 405.492Z" stroke="#61A5B0" stroke-opacity="0.97" stroke-width="11"/>
<circle cx="206" cy="205" r="100" fill="#65A7B2"/>
<path opacity="0.2" d="M175.221 395.796C175.262 396.939 174.237 397.82 173.112 397.612V397.612C172.285 397.459 171.678 396.765 171.648 395.924C170.804 372.83 168.049 327.332 159.095 279.728C154.095 253.128 147.154 225.862 137.527 201.487C134.228 193.053 130.461 184.809 126.243 176.794C116.841 159.082 105.504 144.077 91.8374 133.655C91.0547 133.058 90.8814 131.944 91.4641 131.151V131.151C92.0447 130.36 93.1565 130.187 93.9372 130.781C105.268 139.402 115.488 151.262 124.598 166.359C127.444 171.069 130.178 176.093 132.799 181.432C135.61 187.145 138.29 193.211 140.84 199.628C142.468 203.712 144.04 207.938 145.556 212.305C152.16 231.268 157.773 252.904 162.397 277.214C163.42 282.585 164.395 288.087 165.32 293.721C172.233 335.842 174.487 374.898 175.221 395.796Z" fill="black"/>
<path opacity="0.2" d="M234.875 394.375C234.84 395.602 235.938 396.542 237.146 396.327V396.327C238.053 396.165 238.718 395.401 238.746 394.48C239.426 371.855 241.947 327.485 251.123 280.997C256.26 254.954 263.492 228.236 273.663 204.313C277.146 196.036 281.139 187.938 285.624 180.059C295.598 162.687 307.685 147.925 322.33 137.59C323.199 136.976 323.375 135.751 322.694 134.933V134.933C322.104 134.223 321.071 134.075 320.315 134.603C308.059 143.168 297.053 154.916 287.296 169.846C284.264 174.48 281.356 179.42 278.573 184.667C275.589 190.28 272.75 196.236 270.055 202.535C268.336 206.544 266.678 210.69 265.081 214.974C258.128 233.575 252.275 254.777 247.522 278.579C246.469 283.838 245.471 289.224 244.528 294.739C237.503 335.836 235.46 373.903 234.875 394.375Z" fill="black"/>
<path opacity="0.2" d="M127.588 380.235C127.719 381.639 126.297 382.66 125.014 382.073V382.073C124.411 381.798 124.004 381.22 123.942 380.56C122.684 367.353 120.423 351.193 116.379 335.832C114.559 328.747 112.224 321.803 109.391 315.057C104.936 304.658 99.2485 295.722 91.9933 289.869C91.2276 289.251 91.0536 288.139 91.6367 287.346V287.346C92.2171 286.558 93.3282 286.384 94.0932 286.995C101.722 293.089 107.686 302.219 112.355 312.797C117.935 325.439 121.657 340.152 124.136 354.21C125.759 363.418 126.853 372.351 127.588 380.235Z" fill="black"/>
<path opacity="0.2" d="M266.295 387.661C266.156 389.169 267.684 390.263 269.06 389.632V389.632C269.705 389.335 270.14 388.716 270.207 388.009C271.557 373.773 273.982 356.352 278.322 339.794C280.274 332.158 282.779 324.675 285.819 317.404C290.599 306.193 296.702 296.561 304.488 290.252C305.308 289.588 305.495 288.395 304.871 287.544V287.544C304.247 286.691 303.046 286.504 302.222 287.166C294.042 293.734 287.646 303.571 282.639 314.968C276.652 328.593 272.659 344.451 269.999 359.602C268.257 369.531 267.084 379.162 266.295 387.661Z" fill="black"/>
<path opacity="0.2" d="M72.5099 138.501C82.3428 138.501 90.3138 130.551 90.3138 120.743C90.3138 110.936 82.3428 102.985 72.5099 102.985C62.6771 102.985 54.7061 110.936 54.7061 120.743C54.7061 130.551 62.6771 138.501 72.5099 138.501Z" fill="black"/>
<path opacity="0.2" d="M339.804 138.516C349.637 138.516 357.608 130.565 357.608 120.758C357.608 110.95 349.637 103 339.804 103C329.971 103 322 110.95 322 120.758C322 130.565 329.971 138.516 339.804 138.516Z" fill="black"/>
<path opacity="0.2" d="M72.2434 296.352C82.0762 296.352 90.0473 288.402 90.0473 278.594C90.0473 268.787 82.0762 260.836 72.2434 260.836C62.4106 260.836 54.4395 268.787 54.4395 278.594C54.4395 288.402 62.4106 296.352 72.2434 296.352Z" fill="black"/>
<path opacity="0.2" d="M323.804 297.516C333.637 297.516 341.608 289.565 341.608 279.758C341.608 269.95 333.637 262 323.804 262C313.971 262 306 269.95 306 279.758C306 289.565 313.971 297.516 323.804 297.516Z" fill="black"/>
<path opacity="0.2" d="M142.192 153.543V153.543C138.772 172.788 161.562 176.817 164.982 157.572V157.572V157.572C168.402 138.327 145.612 134.298 142.192 153.543V153.543Z" fill="black"/>
<path opacity="0.2" d="M83.0223 203.974V203.974C101.305 210.642 109.196 189.118 90.9133 182.45V182.45V182.45C72.6309 175.782 64.74 197.306 83.0223 203.974V203.974Z" fill="black"/>
<path opacity="0.2" d="M217.841 256.681V256.681C236.123 263.349 244.014 241.825 225.732 235.157V235.157V235.157C207.449 228.489 199.559 250.013 217.841 256.681V256.681Z" fill="black"/>
<path opacity="0.2" d="M254.841 159.681V159.681C273.123 166.349 281.014 144.825 262.732 138.157V138.157V138.157C244.449 131.489 236.559 153.013 254.841 159.681V159.681Z" fill="black"/>
<path opacity="0.2" d="M79.5772 339.341V339.341C92.443 344.033 98.0143 328.836 85.1485 324.144V324.144V324.144C72.2826 319.451 66.7113 334.648 79.5772 339.341V339.341Z" fill="black"/>
<path opacity="0.2" d="M302.999 350.088V350.088C315.864 354.781 321.436 339.584 308.57 334.891V334.891V334.891C295.704 330.199 290.133 345.396 302.999 350.088V350.088Z" fill="black"/>
<path opacity="0.2" d="M145.999 273.088V273.088C158.864 277.781 164.436 262.584 151.57 257.891V257.891V257.891C138.704 253.199 133.133 268.396 145.999 273.088V273.088Z" fill="black"/>
</svg>
