<svg width="67" height="14" viewBox="0 0 67 14" fill="none" xmlns="http://www.w3.org/2000/svg">
<path d="M16.448 1.768L13.52 13H10.208L8.416 5.608L6.56 13H3.248L0.4 1.768H3.328L4.944 9.944L6.944 1.768H9.952L11.872 9.944L13.504 1.768H16.448ZM17.2761 8.52C17.2761 7.60267 17.4468 6.79733 17.7881 6.104C18.1401 5.41067 18.6148 4.87733 19.2121 4.504C19.8095 4.13067 20.4761 3.944 21.2121 3.944C21.8415 3.944 22.3908 4.072 22.8601 4.328C23.3401 4.584 23.7081 4.92 23.9641 5.336V4.072H26.7001V13H23.9641V11.736C23.6975 12.152 23.3241 12.488 22.8441 12.744C22.3748 13 21.8255 13.128 21.1961 13.128C20.4708 13.128 19.8095 12.9413 19.2121 12.568C18.6148 12.184 18.1401 11.6453 17.7881 10.952C17.4468 10.248 17.2761 9.43733 17.2761 8.52ZM23.9641 8.536C23.9641 7.85333 23.7721 7.31467 23.3881 6.92C23.0148 6.52533 22.5561 6.328 22.0121 6.328C21.4681 6.328 21.0041 6.52533 20.6201 6.92C20.2468 7.304 20.0601 7.83733 20.0601 8.52C20.0601 9.20267 20.2468 9.74667 20.6201 10.152C21.0041 10.5467 21.4681 10.744 22.0121 10.744C22.5561 10.744 23.0148 10.5467 23.3881 10.152C23.7721 9.75733 23.9641 9.21867 23.9641 8.536ZM31.4155 5.56C31.7355 5.06933 32.1355 4.68533 32.6155 4.408C33.0955 4.12 33.6288 3.976 34.2155 3.976V6.872H33.4635C32.7808 6.872 32.2688 7.02133 31.9275 7.32C31.5862 7.608 31.4155 8.12 31.4155 8.856V13H28.6795V4.072H31.4155V5.56ZM40.9633 3.976C42.0086 3.976 42.8406 4.31733 43.4593 5C44.0886 5.672 44.4033 6.6 44.4033 7.784V13H41.6833V8.152C41.6833 7.55467 41.5286 7.09067 41.2193 6.76C40.9099 6.42933 40.4939 6.264 39.9713 6.264C39.4486 6.264 39.0326 6.42933 38.7233 6.76C38.4139 7.09067 38.2593 7.55467 38.2593 8.152V13H35.5233V4.072H38.2593V5.256C38.5366 4.86133 38.9099 4.552 39.3793 4.328C39.8486 4.09333 40.3766 3.976 40.9633 3.976ZM45.7605 8.52C45.7605 7.60267 45.9312 6.79733 46.2725 6.104C46.6245 5.41067 47.0992 4.87733 47.6965 4.504C48.2938 4.13067 48.9605 3.944 49.6965 3.944C50.3258 3.944 50.8752 4.072 51.3445 4.328C51.8245 4.584 52.1925 4.92 52.4485 5.336V4.072H55.1845V13H52.4485V11.736C52.1818 12.152 51.8085 12.488 51.3285 12.744C50.8592 13 50.3098 13.128 49.6805 13.128C48.9552 13.128 48.2938 12.9413 47.6965 12.568C47.0992 12.184 46.6245 11.6453 46.2725 10.952C45.9312 10.248 45.7605 9.43733 45.7605 8.52ZM52.4485 8.536C52.4485 7.85333 52.2565 7.31467 51.8725 6.92C51.4992 6.52533 51.0405 6.328 50.4965 6.328C49.9525 6.328 49.4885 6.52533 49.1045 6.92C48.7312 7.304 48.5445 7.83733 48.5445 8.52C48.5445 9.20267 48.7312 9.74667 49.1045 10.152C49.4885 10.5467 49.9525 10.744 50.4965 10.744C51.0405 10.744 51.4992 10.5467 51.8725 10.152C52.2565 9.75733 52.4485 9.21867 52.4485 8.536ZM62.1399 10.68V13H60.7479C59.7559 13 58.9825 12.76 58.4279 12.28C57.8732 11.7893 57.5959 10.9947 57.5959 9.896V6.344H56.5079V4.072H57.5959V1.896H60.3319V4.072H62.1239V6.344H60.3319V9.928C60.3319 10.1947 60.3959 10.3867 60.5239 10.504C60.6519 10.6213 60.8652 10.68 61.1639 10.68H62.1399ZM65.0399 3.144C64.5599 3.144 64.1652 3.00533 63.8559 2.728C63.5572 2.44 63.4079 2.088 63.4079 1.672C63.4079 1.24533 63.5572 0.893333 63.8559 0.615999C64.1652 0.327999 64.5599 0.183999 65.0399 0.183999C65.5092 0.183999 65.8932 0.327999 66.1919 0.615999C66.5012 0.893333 66.6559 1.24533 66.6559 1.672C66.6559 2.088 66.5012 2.44 66.1919 2.728C65.8932 3.00533 65.5092 3.144 65.0399 3.144ZM66.3999 4.072V13H63.6639V4.072H66.3999Z" fill="#3A3939"/>
</svg>
