<svg width="352" height="445" viewBox="0 0 352 445" fill="none" xmlns="http://www.w3.org/2000/svg">
<path d="M159.599 127.747C159.599 127.747 168.719 86.4223 203.539 90.2504C203.539 90.2504 227.603 91.7757 232.552 106.318V138.461L159.599 127.747Z" fill="#898989"/>
<path d="M350.288 143.799L40.2105 120.068L0.417053 127.724L2.90362 179L5.61481 179.303L8.70302 256.302L312.973 306.808L345.315 281.551V198.081L349.454 195.838L350.288 143.799Z" fill="#A0A0A0"/>
<path opacity="0.05" d="M350.705 143.059L349.871 195.097L316.294 209.639L315.877 155.298L350.705 143.059Z" fill="black"/>
<path opacity="0.05" d="M345.315 197.393L345.724 279.286L313.39 304.542L315.468 209.64L345.315 197.393Z" fill="black"/>
<path opacity="0.05" d="M6.03204 181.628L315.717 216.511L315.877 209.891L5.79944 179.022L6.03204 181.628Z" fill="black"/>
<path opacity="0.05" d="M345.315 200.399V197.393L314.634 209.891V216.526L345.315 200.399Z" fill="black"/>
<path d="M0 126.984L39.7935 119.328L349.871 143.059L315.051 155.298L0 126.984Z" fill="#635A5C"/>
<path d="M316.84 143.918L332.056 144.836L306.837 151.811L293.995 150.952L316.84 143.918Z" fill="white"/>
<path d="M312.42 146.761C313.021 146.524 313.663 146.968 314.305 147.079C314.666 147.146 315.051 147.079 315.412 147.146C316.166 147.242 316.904 147.701 317.61 147.464" fill="#D3DAE1"/>
<path d="M251.065 137.009L266.282 137.927L241.063 144.895L228.221 144.043L251.065 137.009Z" fill="white"/>
<path d="M246.646 139.845C247.247 139.608 247.889 140.06 248.531 140.171C248.892 140.238 249.277 140.171 249.638 140.238C250.392 140.326 251.129 140.793 251.835 140.556" fill="#D3DAE1"/>
<path d="M282.613 140.467L297.837 141.385L272.618 148.353L259.768 147.494L282.613 140.467Z" fill="white"/>
<path d="M278.201 143.303C278.795 143.066 279.437 143.511 280.078 143.629C280.447 143.688 280.824 143.629 281.193 143.688C281.939 143.785 282.677 144.244 283.391 144.014" fill="#D3DAE1"/>
<path opacity="0.1" d="M157.198 445C236.547 445 300.871 431.183 300.871 414.139C300.871 397.096 236.547 383.279 157.198 383.279C77.8502 383.279 13.5258 397.096 13.5258 414.139C13.5258 431.183 77.8502 445 157.198 445Z" fill="#484842"/>
<path d="M314.53 161.419C312.997 147.366 306.931 133.957 306.931 133.957L307.392 129.219C307.392 129.219 307.491 126.849 307.342 123.295C307.358 121.076 307.637 118.868 308.172 116.72C309.414 112.611 306.618 107.561 306.306 107.095C305.994 106.628 306.462 97.6175 303.667 93.1972C300.871 88.7769 282.252 80.5583 282.252 80.5583C282.252 80.5583 281.251 78.374 279.839 75.8196L279.967 75.5604C278.812 73.3736 277.38 71.3588 275.71 69.5705C274.567 68.2969 273.467 67.5713 272.581 67.9267C272.22 66.6978 271.945 65.4432 271.757 64.1728C271.942 64.2246 272.134 64.2765 272.318 64.3135C273.087 64.4995 273.883 64.5196 274.66 64.3727C276.391 63.9655 277.54 62.344 278.505 60.8187C283.316 53.1924 287.46 44.8256 288.305 35.7999C288.531 33.9577 288.447 32.0883 288.056 30.2764C287.657 28.8677 287.1 27.5132 286.396 26.2411C285.152 23.631 283.577 21.2077 281.713 19.0368C278.399 15.394 273.829 13.1653 269.132 11.8474C263.84 10.3624 258.328 9.93285 252.883 10.5812C251.464 10.7515 250.045 10.9959 248.626 11.0921C246.826 11.1749 245.022 11.1427 243.226 10.9959L233.938 10.4331L233.895 10.2851L232.348 10.1888C231.738 11.4549 232.348 12.958 233.107 14.1426C233.867 15.3273 234.74 16.5638 234.676 17.9632C234.612 19.3626 233.64 20.488 232.88 21.6653C232.121 22.8426 231.546 24.3827 232.306 25.5377C232.412 25.6974 232.539 25.8418 232.682 25.9671C233.484 26.8334 234.881 26.9297 236.095 26.9149H236.308C233.252 31.1144 231.599 36.2431 231.603 41.516C231.624 46.0219 232.832 50.435 235.096 54.2719C237.36 58.1089 240.593 61.2217 244.439 63.2695C244.574 63.7508 244.709 64.2468 244.837 64.7503C246.243 69.951 246.748 75.3722 246.327 80.7582L246.163 81.1284L246.064 80.736C246.064 80.736 235.123 88.4808 231.873 90.5317C228.623 92.5827 225.359 99.5352 225.203 101.431C225.047 103.326 219.924 131.914 219.924 131.914C218.883 134.794 218.025 137.742 217.355 140.74L210.82 146.73C210.82 146.73 197.338 147.996 193.436 147.048L193.549 147.833C190.108 147.013 186.603 146.517 183.076 146.352C181.15 146.094 179.193 146.367 177.4 147.144L177.265 147.211L177.158 147.263C175.104 147.556 173.098 148.144 171.198 149.01C170.971 149.106 170.765 149.203 170.567 149.299L170.609 148.329L156.02 147.544L148.57 145.967C148.57 145.967 145.93 143.746 144.377 144.071C142.823 144.397 139.566 142.176 139.566 142.176C138.823 141.568 138.019 141.047 137.167 140.621C136.919 138.829 136.763 137.741 136.763 137.741C136.763 137.741 130.966 113.736 126.623 99.6241C123.714 90.1985 119.528 85.5561 117.058 83.5348C115.958 81.5356 115.235 80.2473 115.235 80.2473C114.759 78.5147 112.148 74.6127 111.481 74.5165C111.375 74.3388 111.297 74.2499 111.254 74.2499C111.111 74.234 110.967 74.2569 110.835 74.3165C109.615 67.9786 108.905 60.0338 110.772 53.1109C113.326 50.9202 115.385 48.1672 116.801 45.049C118.216 41.9309 118.954 38.5247 118.96 35.0743C118.96 34.9707 118.96 34.867 118.96 34.7633C118.96 34.6597 118.96 34.5486 118.96 34.445C118.959 28.9424 117.091 23.6179 113.688 19.4144L113.447 19.1331C113.511 19.0853 113.573 19.0334 113.631 18.9776C114.164 18.5263 114.57 17.9329 114.807 17.2603C115.043 16.5877 115.1 15.8609 114.972 15.157C114.653 13.7354 113.589 12.6174 113.042 11.2698C112.714 10.2324 112.451 9.17388 112.255 8.10083C111.836 6.57676 111.069 5.18169 110.019 4.03592L110.126 4.33209C107.344 1.06684 102.562 -0.554677 98.2549 0.170934C95.0547 0.704036 92.0746 2.25892 88.8602 2.74019C86.5542 3.08078 84.2055 2.85866 81.8852 3.103C79.7325 3.33399 77.6368 3.96593 75.6978 4.96885C75.1913 5.1937 74.7419 5.53845 74.3851 5.97582C74.0551 6.56179 73.8337 7.20731 73.7323 7.8787C72.9447 10.8774 70.447 13.0172 68.6377 15.5198C66.5708 18.379 65.3744 21.82 65.2034 25.397C65.1327 26.3061 65.2168 27.2211 65.4517 28.0996C65.6078 28.6253 65.8491 29.1213 65.9626 29.6544C66.3174 31.2834 65.5014 32.9049 65.104 34.519C64.6035 36.5781 64.7809 38.753 65.6078 40.6941C68.4106 47.2394 77.6136 49.4236 79.5295 56.2947C80.9953 56.9978 82.5437 57.4957 84.1345 57.7756C84.2623 58.4567 84.3758 59.1453 84.468 59.8413C84.4249 59.8604 84.3843 59.8853 84.3474 59.9154C81.8639 62.4402 81.2466 67.3196 81.2466 67.3196L80.9486 67.5713C79.9339 68.445 76.4642 71.3771 73.3279 73.6354C69.6027 76.3231 63.394 85.3266 59.0514 88.0143C54.7089 90.702 51.1327 107.265 52.0693 113.285C53.006 119.304 56.8802 136.186 55.3262 142.346C53.7723 148.507 57.6536 176.62 57.6536 176.62C60.2582 177.138 62.8064 177.927 65.2601 178.975L65.1821 180.204L64.9479 183.906C64.9479 183.906 57.9161 210.443 60.6054 230.871C63.2946 251.299 59.3637 253.402 59.3637 253.402C59.3637 253.402 60.1867 262.457 58.1219 265.619C56.0571 268.78 55.6384 275.725 55.6384 275.725C55.6384 275.725 55.4327 291.311 55.8442 295.717C56.2558 300.122 56.4616 308.148 55.014 310.044C53.5665 311.939 50.8773 324.356 51.0831 328.147C51.2888 331.938 45.9103 340.579 48.8054 351.737C51.7004 362.895 40.2906 363.11 40.2906 363.11C40.2906 363.11 41.7452 380.139 44.846 385.011L45.3001 385.707C45.2221 385.989 45.144 386.285 45.0589 386.603C43.8881 391.046 42.2844 398.058 43.3985 399.753C45.0517 402.285 45.8819 401.856 45.8819 401.856L46.4993 413.229C46.4993 413.229 58.9166 424.179 68.439 423.765C77.9613 423.35 76.0952 413.229 76.0952 413.229L67.9849 391.283L67.7081 390.542L76.7196 372.772C76.7196 372.772 79.2031 364.983 79.8204 362.243C80.4377 359.504 83.8081 349.797 83.8081 349.797C83.8081 349.797 92.3229 328.739 92.5003 326.207C92.6777 323.675 93.3305 309.999 94.9838 307.252C96.6371 304.506 101.192 288.742 101.192 288.742L101.306 288.846C102.079 289.638 102.631 290.634 102.903 291.728C103.176 292.822 103.158 293.973 102.853 295.058C101.81 299.056 102.434 307.267 102.434 307.267C102.434 307.267 102.023 314.22 101.192 317.803C100.362 321.387 100.164 350.656 101.611 357.601C102.768 363.162 102.732 373.572 102.675 377.511C101.703 381.694 100.852 386.892 102.434 387.507C105.131 388.565 118.79 388.351 118.79 388.351C118.79 388.351 124.58 386.24 132.449 393.615C140.318 400.99 164.521 391.512 164.521 391.512C164.521 391.512 171.971 389.402 157.276 383.301C147.023 379.044 140.403 376.208 136.075 373.172C136.174 372.972 136.28 372.772 136.373 372.557C136.373 372.557 130.37 366.634 135.337 356.135C140.304 345.636 140.098 336.758 140.098 336.758L140.928 301.374L138.445 254.401L136.522 205.104L136.862 204.986C137.189 214.048 138.885 235.624 147.761 231.441C158.937 226.177 149.414 212.486 149.414 212.486L144.398 202.283L145.895 201.75L140.282 182.825C139.744 179.131 139.672 175.38 140.069 171.667C140.181 169.495 140.138 167.317 139.942 165.151C147.293 163.811 154.332 162.389 155.595 162.715C157.085 163.093 165.422 163.167 168.7 163.182C167.629 164.055 166.77 164.922 166.77 164.922L180.117 174.295C180.117 174.295 184.644 171.711 185.588 168.972C186.517 168.727 187.374 168.249 188.086 167.58C188.228 170.815 189.051 174.318 191.917 174.399C192.634 174.415 193.346 174.268 194.003 173.97L215.83 169.46L213.956 181.67L215.262 184.091C214.602 194.39 213.843 205.326 213.176 214.944L212.871 217.047L213.027 217.084C211.991 231.893 211.161 243.11 211.161 243.11C212.383 240.679 214.28 238.69 216.603 237.401L216.745 259.377C216.745 259.377 217.838 294.125 217.838 298.864C217.838 303.602 217.987 314.183 217.987 314.183C217.987 314.183 220.321 327.133 221.712 331.398C223.103 335.662 224.195 355.091 224.195 355.091C224.195 355.091 227.459 360.459 226.062 362.495C224.664 364.531 231.497 368.966 231.497 368.966C231.497 368.966 227.147 375.127 226.835 379.236C226.799 379.71 227.246 380.213 228.055 380.717C227.8 380.932 227.537 381.146 227.247 381.354C225.231 382.76 222.28 383.738 217.838 383.338C205.725 382.227 197.189 393.919 204.64 396.288C212.09 398.657 234.441 399.131 234.441 399.131C234.441 399.131 241.211 394.726 246.504 396.71C246.426 401.345 246.646 405.595 246.681 406.158L246.618 406.21C243.453 409.171 237.393 414.265 231.476 416.346C222.961 419.345 221.073 431.51 232.093 433.087C243.112 434.664 259.255 431.191 259.255 431.191C259.255 431.191 267.635 424.72 274 423.298C280.364 421.877 285.8 418.715 284.714 414.924C284.005 412.503 282.181 406.158 280.946 401.893C280.875 401.636 280.804 401.389 280.733 401.152C280.925 400.708 281.117 400.249 281.294 399.775C281.294 399.775 278.037 382.087 280.677 377.666C283.316 373.246 281.918 329.013 281.918 329.013C281.918 329.013 277.413 317.803 279.747 311.014C282.082 304.224 276.022 294.584 276.022 294.584C276.022 294.584 276.682 275.266 278.456 264.501C278.536 264.042 278.614 263.597 278.69 263.168C281.66 262.248 284.555 261.082 287.347 259.681C287.347 259.681 288.901 235.35 289.83 229.827C289.922 229.309 290.05 228.472 290.206 227.383L290.916 223.481L291.753 219.039L294.591 203.897L299.714 196.982L312.912 182.914C312.912 182.914 316.084 175.48 314.53 161.419ZM110.999 74.5461L110.899 74.6201C110.884 74.5667 110.872 74.5123 110.864 74.4572C110.905 74.4926 110.95 74.5225 110.999 74.5461V74.5461ZM241.395 91.7904L240.884 92.9529L242.75 91.013L240.217 93.9747L241.069 92.1088L241.395 91.7904ZM228.793 118.964C228.304 120.319 227.779 121.785 227.232 123.31L228.233 120.193L228.793 118.964Z" fill="url(#paint0_linear)"/>
<path d="M188.072 163.263C188.072 163.263 186.333 175.339 191.548 175.495C196.764 175.65 200.248 166.18 200.248 166.18L198.119 158.606L188.072 163.263Z" fill="#585B8A"/>
<path opacity="0.2" d="M188.072 163.263C188.072 163.263 186.333 175.339 191.548 175.495C196.764 175.65 200.248 166.18 200.248 166.18L198.119 158.606L188.072 163.263Z" fill="black"/>
<path d="M71.256 424.66C61.9749 425.082 49.8697 414.139 49.8697 414.139L49.2666 402.774C49.2666 402.774 48.4648 403.196 46.847 400.671C45.7614 398.975 47.3224 391.949 48.4648 387.528C49.0183 385.366 49.4724 383.826 49.4724 383.826L69.8369 389.513L70.809 392.2L78.7135 414.132C78.7135 414.132 80.53 424.238 71.256 424.66Z" fill="#896551"/>
<path d="M164.826 392.467C164.826 392.467 141.233 401.937 133.605 394.57C125.978 387.203 120.294 389.305 120.294 389.305C120.294 389.305 106.982 389.52 104.357 388.461C102.81 387.847 103.648 382.582 104.613 378.392C105.265 375.497 105.975 373.105 105.975 373.105C105.975 373.105 129.163 364.894 132.796 369.943C133.888 371.427 135.192 372.726 136.664 373.794C140.864 376.963 147.428 379.835 157.809 384.256C172.085 390.357 164.826 392.467 164.826 392.467Z" fill="#896551"/>
<path d="M143.653 200.114L150.103 213.582C150.103 213.582 159.384 227.265 148.492 232.522C137.6 237.779 137.806 202.224 137.806 202.224L143.653 200.114Z" fill="#FFD6D6"/>
<path d="M116.626 83.3198C116.626 83.3198 123.686 86.6888 127.922 100.786C132.158 114.884 137.806 138.881 137.806 138.881C137.806 138.881 141.638 166.025 141.028 172.763C140.639 176.473 140.708 180.221 141.233 183.913L146.676 202.853L135.784 206.851L119.045 139.932L116.626 83.3198Z" fill="#DCE6F2"/>
<path opacity="0.05" d="M116.626 83.3198C116.626 83.3198 123.686 86.6888 127.922 100.786C132.158 114.884 137.806 138.881 137.806 138.881C137.806 138.881 141.638 166.025 141.028 172.763C140.639 176.473 140.708 180.221 141.233 183.913L146.676 202.853L135.784 206.851L119.045 139.932L116.626 83.3198Z" fill="black"/>
<path opacity="0.1" d="M69.8368 389.521L70.8089 392.209L69.6168 394.585C64.9763 396.688 53.4813 395.007 53.4813 395.007C53.4813 395.007 51.3526 392.186 48.4434 387.544C48.9969 385.382 49.451 383.842 49.451 383.842L69.8368 389.521Z" fill="black"/>
<path opacity="0.1" d="M137.402 374.786C131.519 388.691 111.524 383.53 105.968 381.79C105.053 381.501 104.549 381.309 104.549 381.309C104.549 381.309 104.584 380.176 104.598 378.392C105.251 375.497 105.961 373.105 105.961 373.105C105.961 373.105 129.149 364.894 132.782 369.943C133.874 371.427 135.178 372.726 136.649 373.794C136.872 374.147 137.123 374.479 137.402 374.786V374.786Z" fill="black"/>
<path d="M136.387 357.113C131.548 367.627 137.402 373.528 137.402 373.528C131.519 387.425 111.524 382.272 105.968 380.525C105.052 380.243 104.549 380.051 104.549 380.051C104.549 380.051 104.953 365.524 103.541 358.579C102.129 351.633 102.328 322.387 103.137 318.811C103.946 315.234 104.343 308.282 104.343 308.282C104.343 308.282 103.74 300.078 104.747 296.08C105.051 295 105.071 293.854 104.806 292.763C104.542 291.672 104.002 290.675 103.243 289.875L103.137 289.764C103.137 289.764 98.7019 305.55 97.0841 308.275C95.4663 310.999 94.8702 324.69 94.6645 327.214C94.4587 329.739 86.1923 350.789 86.1923 350.789C86.1923 350.789 82.9708 360.467 82.3677 363.199C81.7646 365.931 79.3379 373.728 79.3379 373.728L69.6169 393.304C64.9763 395.407 53.4814 393.726 53.4814 393.726C53.4814 393.726 51.2675 390.765 48.2377 385.937C45.2079 381.11 43.8029 364.058 43.8029 364.058C43.8029 364.058 54.8934 363.843 52.0693 352.692C49.2453 341.542 54.4889 332.908 54.2903 329.117C54.0916 325.326 56.7099 312.917 58.1219 311.021C59.5339 309.126 59.3282 301.129 58.9237 296.709C58.5193 292.289 58.725 276.718 58.725 276.718C58.725 276.718 59.1295 269.773 61.1447 266.619C63.1598 263.464 62.358 254.409 62.358 254.409C62.358 254.409 66.1826 252.306 63.5643 231.893C60.946 211.479 67.8217 184.965 67.8217 184.965L68.0558 181.263L68.4248 175.266C68.4248 175.266 126.105 171.475 130.746 176.102C131.959 177.387 132.954 178.876 133.69 180.508C135.278 184.069 136.4 187.837 137.025 191.71L139.445 255.475L141.865 302.403L141.056 337.758C141.056 337.758 141.233 346.584 136.387 357.113Z" fill="#386E96"/>
<path opacity="0.1" d="M119.286 231.263L113.234 368.048L105.968 380.517C105.053 380.236 104.549 380.043 104.549 380.043C104.549 380.043 104.953 365.516 103.541 358.571C102.129 351.626 102.328 322.379 103.137 318.803C103.946 315.227 104.343 308.274 104.343 308.274C104.343 308.274 103.74 300.07 104.747 296.072C105.051 294.992 105.071 293.847 104.806 292.756C104.542 291.664 104.002 290.667 103.243 289.867L103.342 289.127L119.286 231.263Z" fill="black"/>
<path opacity="0.1" d="M54.1058 378.155C54.1058 378.155 69.8369 371.632 72.2565 373.713C74.6761 375.793 53.7084 378.97 53.7084 378.97L54.1058 378.155Z" fill="black"/>
<path opacity="0.1" d="M131.753 360.896C131.15 361.11 115.824 366.819 117.236 372.89C118.648 378.962 131.753 360.896 131.753 360.896Z" fill="black"/>
<path d="M83.8578 49.5498C83.8578 49.5498 88.9951 62.4923 86.2775 69.1265C83.5598 75.7606 115.618 87.1187 115.618 87.1187C115.618 87.1187 106.245 61.863 115.32 47.6543C124.395 33.4457 83.8578 49.5498 83.8578 49.5498Z" fill="#FFD6D6"/>
<path d="M271.566 424.239C265.364 425.661 257.197 432.132 257.197 432.132C257.197 432.132 241.466 435.604 230.724 434.027C219.981 432.45 221.804 420.293 230.12 417.294C235.889 415.221 241.8 410.104 244.886 407.172C246.249 405.862 247.058 404.951 247.058 404.951L277.165 398.635C277.165 398.635 277.654 400.39 278.335 402.811C279.542 407.083 281.323 413.421 282.004 415.835C283.061 419.663 277.768 422.817 271.566 424.239Z" fill="#4F4D4D"/>
<path d="M263.853 399.931C263.853 399.931 251.145 401.353 245.851 398.198C240.558 395.044 232.994 400.094 232.994 400.094C232.994 400.094 211.21 399.62 203.952 397.251C196.693 394.881 205.009 383.183 216.809 384.308C221.109 384.715 224.018 383.731 225.984 382.324C228.037 380.855 229.468 378.617 229.978 376.075L255.523 377.652L259.071 387.1L263.853 399.931Z" fill="#4F4D4D"/>
<path opacity="0.1" d="M259.461 391.409C259.461 391.409 229.773 386.344 225.984 382.324C228.037 380.855 229.468 378.617 229.978 376.075L255.523 377.652L259.071 387.1L259.461 391.409Z" fill="black"/>
<path d="M215.447 214.167L215.752 260.406C215.752 260.406 216.809 295.132 216.809 299.87C216.809 304.609 216.958 315.175 216.958 315.175C216.958 315.175 219.229 328.117 220.591 332.382C221.953 336.647 223.01 356.075 223.01 356.075C223.01 356.075 226.189 361.443 224.827 363.48C223.465 365.516 230.12 369.951 230.12 369.951C230.12 369.951 225.863 376.111 225.586 380.213C225.309 384.315 259.461 390.142 259.461 390.142L246.156 247.782L235.563 212.116L215.447 214.167Z" fill="#61A5B0"/>
<path opacity="0.1" d="M215.447 214.167L215.752 260.406C215.752 260.406 216.809 295.132 216.809 299.87C216.809 304.609 216.958 315.175 216.958 315.175C216.958 315.175 219.229 328.117 220.591 332.382C221.953 336.647 223.01 356.075 223.01 356.075C223.01 356.075 226.189 361.443 224.827 363.48C223.465 365.516 230.12 369.951 230.12 369.951C230.12 369.951 225.863 376.111 225.586 380.213C225.309 384.315 259.461 390.142 259.461 390.142L246.156 247.782L235.563 212.116L215.447 214.167Z" fill="black"/>
<path opacity="0.1" d="M278.335 402.848C268.451 427.437 244.943 408.461 244.943 408.461C244.943 408.461 244.943 407.987 244.886 407.172C246.249 405.862 247.058 404.951 247.058 404.951L277.164 398.635C277.164 398.635 277.654 400.427 278.335 402.848Z" fill="black"/>
<path d="M278.676 400.724C268.99 426.638 244.943 407.195 244.943 407.195C244.943 407.195 244.184 393.778 245.702 387.626C247.221 381.473 244.035 362.999 244.035 362.999C244.035 362.999 242.218 346.584 240.558 342.801C238.898 339.017 239.047 331.435 239.047 330.806C239.047 330.176 239.65 325.119 238.287 321.647C236.925 318.174 236.159 309.652 236.159 309.652C236.159 309.652 236.159 297.657 234.796 290.557L230.106 266.123L221.634 216.085L224.281 215.611L271.701 206.934C271.701 206.934 280.627 254.32 277.597 259.178C276.944 260.244 276.37 262.576 275.894 265.582C274.163 276.333 273.517 295.636 273.517 295.636C273.517 295.636 279.414 305.261 277.15 312.051C274.887 318.841 279.279 330.043 279.279 330.043C279.279 330.043 280.641 374.239 278.066 378.659C275.49 383.079 278.676 400.724 278.676 400.724Z" fill="#61A5B0"/>
<path d="M274.134 77.6418C274.134 77.6418 231.178 109.206 240.856 93.4202C246.071 84.9201 245.113 74.0952 243.07 65.921C242.037 61.7634 240.611 57.7231 238.812 53.8595C238.812 53.8595 275.312 37.6591 270.473 52.1788C269.339 55.5614 268.857 59.1446 269.054 62.7224C269.344 68.1005 271.107 73.2787 274.134 77.6418V77.6418Z" fill="#D28690"/>
<path d="M196.792 149.928C196.792 149.928 178.641 144.457 175.619 149.825C172.596 155.193 176.527 166.973 182.005 168.868C187.483 170.764 200.056 162.449 200.056 162.449L196.792 149.928Z" fill="#D28690"/>
<path d="M217.568 140.621L210.004 147.885C210.004 147.885 196.842 149.143 193.06 148.196C193.06 148.196 196.544 172.504 191.548 175.502L222.102 169.031L217.568 140.621Z" fill="#61A5B0"/>
<path opacity="0.1" d="M217.568 140.621L210.004 147.885C210.004 147.885 196.842 149.143 193.06 148.196C193.06 148.196 196.544 172.504 191.548 175.502L222.102 169.031L217.568 140.621Z" fill="black"/>
<path opacity="0.1" d="M120.457 36.288C120.457 42.5719 118.065 48.5984 113.807 53.0418C109.548 57.4852 103.773 59.9815 97.7511 59.9815C86.1 54.1395 75.045 49.386 75.045 36.288C74.9242 33.1002 75.4216 29.9198 76.5073 26.9374C77.5931 23.9551 79.2448 21.2323 81.3635 18.9322C83.4823 16.6322 86.0243 14.8024 88.8372 13.5524C91.6501 12.3025 94.676 11.6582 97.7333 11.6582C100.791 11.6582 103.817 12.3025 106.629 13.5524C109.442 14.8024 111.984 16.6322 114.103 18.9322C116.222 21.2323 117.874 23.9551 118.959 26.9374C120.045 29.9198 120.542 33.1002 120.422 36.288H120.457Z" fill="black"/>
<path d="M120.457 35.6516C120.461 41.2238 118.578 46.6182 115.142 50.8837C111.706 55.1491 106.937 58.0115 101.676 58.966C96.4151 59.9206 91 58.906 86.3859 56.1012C81.7717 53.2964 78.2549 48.8816 76.4555 43.6353C74.6562 38.389 74.69 32.6482 76.5509 27.4253C78.4118 22.2024 81.9803 17.8329 86.6271 15.0875C91.2739 12.342 96.7005 11.3968 101.95 12.4187C107.199 13.4406 111.934 16.3638 115.32 20.6729C118.636 24.8988 120.45 30.1901 120.457 35.6516V35.6516Z" fill="#FFD6D6"/>
<path opacity="0.1" d="M133.691 180.53C131.444 181.986 129.093 183.258 126.659 184.336C126.659 184.336 115.164 182.596 113.503 184.647C111.843 186.698 97.1835 187.49 97.1835 187.49C97.1835 187.49 74.7967 186.387 71.4689 183.388C70.4399 182.519 69.2949 181.81 68.0701 181.285L68.439 175.288C68.439 175.288 126.119 171.497 130.76 176.125C131.968 177.41 132.959 178.9 133.691 180.53Z" fill="black"/>
<path d="M136.493 176.287C136.039 178.967 126.659 183.069 126.659 183.069C126.659 183.069 115.164 181.337 113.503 183.388C111.843 185.439 97.1835 186.231 97.1835 186.231C97.1835 186.231 74.7967 185.12 71.4689 182.121C68.141 179.123 60.7261 177.679 60.7261 177.679C60.7261 177.679 56.9441 149.587 58.4626 143.435C59.981 137.282 56.1919 120.385 55.2837 114.388C54.3755 108.391 57.8523 91.8199 62.0884 89.1396C66.3245 86.4593 72.3771 77.4558 76.003 74.7755C79.0612 72.5172 82.4387 69.5925 83.425 68.7114L83.7159 68.4597C83.7159 68.4597 84.3262 63.5655 86.7458 61.0555C89.1654 58.5455 111.396 76.9967 111.396 76.9967C111.396 76.9967 111.552 78.4183 113.064 75.738C113.404 75.1383 116.335 79.5512 116.845 81.417C116.845 81.417 128.944 103.519 129.703 108.072C130.462 112.626 133.634 127.486 134.237 131.114C134.393 132.047 134.648 135.32 134.946 139.703C135.003 140.562 135.053 141.472 135.117 142.42C135.564 149.691 136.046 158.976 136.337 165.995C136.337 166.795 136.401 167.565 136.422 168.305C136.576 170.963 136.599 173.627 136.493 176.287V176.287Z" fill="#DCE6F2"/>
<path opacity="0.1" d="M59.683 119.305C59.683 119.305 67.9991 129.878 70.7238 129.878C73.4485 129.878 59.683 119.305 59.683 119.305Z" fill="black"/>
<path opacity="0.1" d="M77.2022 142.035C77.2022 142.035 63.5856 157.502 65.4021 160.345C67.2186 163.188 77.2022 142.035 77.2022 142.035Z" fill="black"/>
<path opacity="0.1" d="M67.2186 172.814C67.2186 172.814 82.829 154.978 83.5386 148.825L67.2186 172.814Z" fill="black"/>
<path opacity="0.1" d="M86.8806 174.074C86.8806 174.074 104.882 164.13 106.394 156.237C107.905 148.344 86.8806 174.074 86.8806 174.074Z" fill="black"/>
<path opacity="0.1" d="M109.721 78.115L107.224 84.4234L111.382 86.4743L115.469 98.3951C115.469 98.3951 126.737 121.911 126.283 134.143C125.829 146.374 128.326 164.759 128.326 164.759L134.826 163.5L131.761 127.523C131.283 121.953 129.946 116.5 127.801 111.375C122.607 98.9652 112.943 76.0566 112.333 76.0566C111.503 76.0566 112.084 76.375 112.084 76.375L109.721 78.115Z" fill="black"/>
<path d="M110.325 77.4782L107.827 83.794L111.992 85.8449L116.072 97.7657C116.072 97.7657 127.34 121.281 126.886 133.513C126.432 145.745 128.929 164.129 128.929 164.129L135.436 162.871L132.364 126.894C131.892 121.323 130.557 115.87 128.411 110.745C123.217 98.3284 113.553 75.4272 112.95 75.4272C112.113 75.4272 112.695 75.7456 112.695 75.7456L110.325 77.4782Z" fill="#A0A0A0"/>
<path d="M183.984 170.238C180.82 169.986 173.228 165.981 170.212 164.315L168.935 163.574L169.091 151.35C169.836 150.893 170.609 150.485 171.404 150.128C175.434 148.292 183.701 145.797 187.845 153.831C193.436 164.604 187.994 170.52 183.984 170.238Z" fill="#FFD6D6"/>
<path opacity="0.1" d="M115.32 20.6736C114.995 20.8861 114.637 21.0389 114.263 21.1252C111.63 21.725 108.636 19.363 106.379 20.8809C105.003 21.8138 104.684 23.7463 104.499 25.4493C104.177 28.411 103.856 31.3529 103.534 34.2751C103.467 35.3154 103.256 36.3403 102.91 37.3182C101.796 39.9763 98.7374 41.2276 95.9489 41.1832C94.8565 41.2644 93.7777 40.8918 92.9474 40.1466C92.4578 39.6283 92.1953 38.9027 91.656 38.4289C88.1082 35.3265 87.0296 42.9306 87.9663 45.0926C89.4705 48.6244 94.8136 52.0304 92.5713 56.5173C92.1942 57.2465 91.6224 57.8458 90.9252 58.2425C87.5462 57.1383 84.4616 55.2248 81.9176 52.6549C79.3737 50.0849 77.441 46.9298 76.2739 43.4415C75.1068 39.9533 74.7377 36.2285 75.1961 32.5649C75.6544 28.9012 76.9275 25.4002 78.9136 22.3414C80.8998 19.2827 83.5439 16.7511 86.6348 14.9487C89.7258 13.1464 93.1778 12.1233 96.7152 11.9613C100.253 11.7992 103.777 12.5027 107.008 14.0154C110.238 15.5281 113.085 17.8083 115.32 20.6736Z" fill="black"/>
<path d="M91.0528 38.3991C91.585 38.8656 91.8546 39.5912 92.3442 40.1095C93.1749 40.8539 94.2534 41.2264 95.3457 41.1461C98.1343 41.1905 101.193 39.9466 102.299 37.2737C102.652 36.2999 102.865 35.2769 102.931 34.238L103.896 25.4122C104.08 23.7092 104.393 21.7767 105.776 20.8438C108.033 19.3629 111.027 21.6879 113.66 21.0881C114.608 20.8364 115.43 20.2172 115.957 19.3563C116.484 18.4954 116.678 17.4574 116.498 16.4531C116.193 15.0389 115.157 13.9209 114.625 12.5733C114.302 11.5379 114.044 10.4818 113.851 9.4117C112.382 3.66605 105.918 0.437824 100.298 1.40037C97.1764 1.94088 94.2743 3.49576 91.1451 3.96963C88.9029 4.31022 86.611 4.08809 84.3475 4.33983C82.2445 4.56627 80.1997 5.19634 78.3162 6.19828C77.8217 6.42665 77.3845 6.77129 77.0389 7.20525C76.7175 7.79137 76.5011 8.43368 76.4003 9.10073C75.6411 12.0624 73.2002 14.2466 71.4334 16.7419C69.4125 19.6128 68.2431 23.0393 68.0701 26.5968C68.0005 27.5055 68.0821 28.4198 68.3113 29.2994C68.4603 29.8177 68.6945 30.3211 68.808 30.8543C69.1557 32.4758 68.361 34.0973 67.9707 35.7114C67.4858 37.7712 67.6602 39.9399 68.4674 41.8865C71.1921 48.4244 80.1681 50.6086 82.0343 57.4723C83.6914 58.3014 85.4813 58.8035 87.3134 58.9532C89.1441 58.9902 91.1167 58.1683 91.9682 56.4728C94.2033 52.0302 88.8674 48.5799 87.3631 45.0555C86.4194 42.8861 87.4766 35.2894 91.0528 38.3991Z" fill="#353045"/>
<path opacity="0.1" d="M270.509 52.1788C269.375 55.5615 268.892 59.1446 269.09 62.7224C267.997 63.6923 266.805 60.7899 265.542 61.5377C262.079 63.6257 258.077 68.5939 253.791 68.5939C250.075 68.5964 246.41 67.6804 243.098 65.921C242.065 61.7634 240.639 57.7231 238.841 53.8595C238.841 53.8595 275.348 37.6591 270.509 52.1788Z" fill="black"/>
<path d="M277.363 42.7079C277.363 47.5785 275.979 52.3398 273.386 56.3896C270.793 60.4393 267.107 63.5958 262.794 65.4597C258.482 67.3236 253.737 67.8113 249.159 66.8611C244.581 65.9108 240.376 63.5654 237.075 60.1214C233.775 56.6773 231.527 52.2893 230.616 47.5123C229.706 42.7352 230.173 37.7837 231.959 33.2838C233.746 28.7839 236.77 24.9378 240.652 22.2318C244.533 19.5259 249.095 18.0815 253.763 18.0815C256.862 18.0806 259.932 18.7169 262.795 19.9541C265.659 21.1914 268.261 23.0053 270.453 25.2923C272.645 27.5792 274.383 30.2944 275.569 33.2826C276.754 36.2709 277.364 39.4737 277.363 42.7079Z" fill="#D28690"/>
<path d="M276.356 83.1124C276.356 83.1124 271.914 88.1621 271.311 88.5767C270.707 88.9914 257.829 145.589 257.602 146.248C257.375 146.907 242.268 198.011 242.268 198.011L218.065 210.428L220.087 147.921L237.826 96.3733C237.826 96.3733 243.68 89.4282 245.49 86.9034C247.299 84.3786 269.891 69.2222 269.891 69.2222L273.751 77.5223L276.356 83.1124Z" fill="#F0F3F7"/>
<path opacity="0.1" d="M273.155 78.7884L245.326 99.5794L244.879 88.1621C246.696 85.6373 269.281 70.4883 269.281 70.4883L273.155 78.7884Z" fill="black"/>
<path d="M273.759 77.5223L245.929 98.3133L245.497 86.9034C247.313 84.3712 269.898 69.2222 269.898 69.2222L273.759 77.5223Z" fill="#F0F3F7"/>
<path d="M244.567 81.8247L245.496 86.904L239.274 93.5011L244.241 81.8988C244.241 81.8988 233.597 89.6361 230.404 91.6871C227.211 93.7381 224.018 100.683 223.897 102.579C223.777 104.474 218.753 133.04 218.753 133.04C218.753 133.04 214.971 143.613 216.035 146.611C217.1 149.61 210.288 244.154 210.288 244.154C211.199 242.318 212.486 240.714 214.058 239.456C215.63 238.198 217.449 237.317 219.385 236.876L216.958 181.004C216.958 181.004 219.91 143.835 220.059 143.361C220.208 142.887 226.941 121.341 226.941 121.341L244.567 81.8247Z" fill="#61A5B0"/>
<path opacity="0.1" d="M246.107 87.5327L245.624 97.8986C245.624 97.8986 238.891 120.074 236.627 123.702C234.364 127.33 227.474 148.958 227.474 148.958L223.592 186.527L216.937 189.688L213.658 183.387L219.108 147.107C219.108 147.107 229.389 116.491 230.908 113.329L238.493 96.6547L246.107 87.5327Z" fill="black"/>
<path d="M245.497 86.9038L245.021 97.2697C245.021 97.2697 238.287 119.445 236.017 123.073C233.746 126.701 226.871 148.329 226.871 148.329L223.011 185.89L216.355 189.045L213.027 182.736L218.476 146.456C218.476 146.456 228.758 115.832 230.269 112.678L237.911 96.0258L245.497 86.9038Z" fill="#4F4D4D"/>
<path d="M167.047 166.025L180.053 175.421C180.053 175.421 189.228 170.053 183.885 166.58C178.542 163.108 173.802 162.582 172.085 162.582C170.368 162.582 167.047 166.025 167.047 166.025Z" fill="#D28690"/>
<path d="M176.761 148.655C176.471 148.843 176.232 149.106 176.066 149.419C175.901 149.731 175.815 150.083 175.817 150.439C175.817 153.32 176.13 160.946 178.443 157.503C181.281 153.29 180.763 149.506 185.098 152.239C187.793 153.99 190.151 156.249 192.052 158.902L190.846 149.854C190.846 149.854 181.934 145.264 176.761 148.655Z" fill="#D28690"/>
<path opacity="0.1" d="M277.612 259.147C276.959 260.214 276.384 262.546 275.909 265.552C249.385 273.852 229.978 256.304 229.978 256.304C227.631 248.002 225.712 239.573 224.231 231.056C223.756 228.139 223.862 222.482 224.302 215.581L271.722 206.903C271.722 206.903 280.641 254.253 277.612 259.147Z" fill="black"/>
<path d="M304.837 117.883C303.631 121.992 304.085 130.351 304.085 130.351L293.194 184.017C293.194 184.017 287.9 225.369 286.992 230.893C286.084 236.416 284.572 260.724 284.572 260.724C253.713 276.51 229.936 255.045 229.936 255.045C227.588 246.74 225.67 238.309 224.188 229.79C222.67 220.416 227.14 182.862 229.255 166.18C229.886 161.242 230.312 158.132 230.312 158.132L238.252 127.353C238.252 127.353 248.008 101.386 251.641 93.8116C255.274 86.2371 269.863 69.2223 269.863 69.2223C271.672 68.0228 274.567 72.258 276.717 76.1156C278.342 79.0328 279.556 81.7428 279.556 81.7428C279.556 81.7428 297.706 89.9466 300.424 94.3299C303.142 98.7132 302.695 107.746 303 108.22C303.305 108.694 306.051 113.781 304.837 117.883Z" fill="#61A5B0"/>
<path opacity="0.1" d="M262.036 98.7878C262.036 98.7878 263.399 107.154 259.908 109.679C256.537 112.123 231.447 163.604 229.886 166.817C230.518 161.871 230.943 158.762 230.943 158.762L238.883 127.99C238.883 127.99 248.647 102.023 252.273 94.4415C255.899 86.8596 270.502 69.8522 270.502 69.8522C272.311 68.6527 275.199 72.8879 277.349 76.7455C274.106 83.7721 267.344 97.0552 262.036 98.7878Z" fill="black"/>
<path d="M261.433 98.1579C261.433 98.1579 262.789 106.525 259.305 109.049C255.821 111.574 230.851 162.967 229.269 166.18C229.9 161.242 230.326 158.132 230.326 158.132L238.266 127.353C238.266 127.353 248.023 101.386 251.656 93.8116C255.288 86.2371 269.877 69.2223 269.877 69.2223C271.687 68.0228 274.582 72.258 276.732 76.1156C273.503 83.1348 266.734 96.4253 261.433 98.1579Z" fill="#61A5B0"/>
<path d="M297.429 173.763L288.893 220.105V220.113L288.077 224.548V224.555L286.24 234.529L278.399 232.796L274.745 231.989L224.174 220.809L220.456 219.987L211.97 218.114L213.63 206.608L214.318 201.824L220.442 159.398L297.429 173.763Z" fill="#FFF8AD"/>
<path d="M250.236 211.642C250.236 211.642 230.12 219.217 234.505 228.213C238.89 237.209 267.025 221.268 267.025 221.268L250.236 211.642Z" fill="#D28690"/>
<path opacity="0.1" d="M264.605 276.191C264.605 276.821 265.364 284.877 268.387 287.712C271.41 290.548 264.605 276.191 264.605 276.191Z" fill="black"/>
<path opacity="0.1" d="M244.34 304.758C244.34 304.758 247.966 315.176 262.335 319.44C276.703 323.705 244.34 304.758 244.34 304.758Z" fill="black"/>
<path opacity="0.1" d="M277.363 42.7077C277.364 47.0368 276.271 51.2897 274.194 55.0374C272.118 58.7852 269.131 61.8952 265.535 64.0539C264.179 63.2625 262.976 62.2156 261.987 60.9664C260.958 59.6633 260.156 57.8862 260.773 56.3314C261.27 55.0801 262.583 54.2878 262.902 52.9921C263.053 52.1997 263.014 51.3808 262.789 50.6079C262.526 49.3862 262.278 48.1645 262.022 46.9502C261.802 45.9137 261.412 44.692 260.426 44.4402C259.439 44.1885 258.616 45.0474 257.843 45.6841C255.948 47.2464 252.315 48.3052 250.038 47.0243C247.76 45.7434 248.399 41.4563 248.03 39.1388C248.025 38.9375 247.978 38.7397 247.892 38.5593C247.807 38.3789 247.684 38.2204 247.533 38.0948C247.201 37.9801 246.848 37.9546 246.504 38.0208C245.277 38.0208 244.29 36.8731 243.935 35.644C243.684 34.3893 243.546 33.1126 243.524 31.8309C243.389 30.55 242.942 29.195 241.892 28.536C241.053 28.1285 240.122 27.9697 239.203 28.077L234.754 28.1288C237.705 23.9651 241.839 20.8783 246.569 19.3073C251.298 17.7363 256.381 17.7611 261.096 19.3782C265.811 20.9952 269.918 24.1222 272.832 28.3145C275.746 32.5067 277.319 37.551 277.328 42.7299L277.363 42.7077Z" fill="black"/>
<path d="M258.475 45.6845C259.248 45.0478 260.099 44.2037 261.057 44.448C262.015 44.6924 262.427 45.9289 262.647 46.9507L263.413 50.6009C263.64 51.3759 263.681 52.197 263.534 52.9925C263.172 54.2956 261.866 55.0805 261.362 56.3318C260.745 57.8867 261.554 59.6637 262.576 60.9594C264.44 63.3032 267.016 64.9102 269.877 65.513C270.624 65.7002 271.401 65.7179 272.155 65.5648C273.844 65.1576 274.993 63.5361 275.901 62.0182C280.592 54.3919 284.629 46.0326 285.452 37.0142C285.678 35.1748 285.596 33.3084 285.211 31.4981C284.826 30.091 284.283 28.7365 283.593 27.4628C282.385 24.8608 280.851 22.4381 279.031 20.2585C275.802 16.6305 271.346 14.4018 266.769 13.0839C261.622 11.5934 256.247 11.1534 250.939 11.7881C249.52 11.9584 248.157 12.2028 246.76 12.299C245.005 12.3842 243.246 12.3545 241.495 12.2102L231.05 11.5586C230.454 12.8247 231.05 14.3278 231.759 15.5124C232.469 16.6971 233.349 17.9262 233.292 19.333C233.235 20.7398 232.277 21.8504 231.539 23.0351C230.802 24.2198 230.241 25.7525 230.979 26.9075C231.717 28.0626 233.221 28.1366 234.527 28.1218L239.792 28.0626C240.709 27.9642 241.634 28.1307 242.467 28.5438C243.517 29.2028 243.964 30.5652 244.099 31.8387C244.128 33.1199 244.266 34.3959 244.51 35.6519C244.872 36.881 245.851 38.0434 247.079 38.0286C247.423 37.9571 247.778 37.9852 248.108 38.11C248.259 38.2341 248.381 38.3913 248.467 38.5705C248.553 38.7497 248.6 38.9464 248.605 39.1467C248.973 41.4642 248.292 45.7438 250.613 47.0321C252.933 48.3204 256.58 47.2468 258.475 45.6845Z" fill="#663D5C"/>
<path opacity="0.1" d="M288.468 94.3229C285.859 94.0337 283.233 94.6787 281.022 96.152C278.811 97.6252 277.145 99.8392 276.299 102.43C273.461 110.864 268.728 126.079 269.913 132.092C271.58 140.614 273.546 154.823 273.546 154.823C273.546 154.823 282.167 160.005 277.803 165.233C273.439 170.46 272.205 177.864 272.205 177.864C272.205 177.864 266.606 180.389 265.4 185.757C264.194 191.125 256.019 198.537 256.019 198.537L243.772 211.324C243.772 211.324 264.037 232.796 268.125 233.892L280.677 218.58L295.5 198.063L308.357 183.995C308.357 183.995 311.38 176.591 309.868 162.523C308.357 148.455 302.453 135.061 302.453 135.061L302.907 130.322C302.907 130.322 304.298 96.3739 288.468 94.3229Z" fill="black"/>
<path d="M289.674 94.3229C287.067 94.0372 284.445 94.6839 282.237 96.1569C280.028 97.6299 278.365 99.8419 277.519 102.43C274.681 110.864 269.948 126.079 271.133 132.092C272.793 140.614 274.759 154.823 274.759 154.823C274.759 154.823 283.38 160.005 279.016 165.233C274.653 170.46 273.425 177.864 273.425 177.864C273.425 177.864 267.827 180.389 266.613 185.757C265.4 191.125 257.24 198.537 257.24 198.537L244.986 211.324C244.986 211.324 265.251 232.796 269.338 233.892L281.89 218.58L296.677 198.063L309.535 183.995C309.535 183.995 312.565 176.591 311.046 162.523C309.528 148.455 303.638 135.061 303.638 135.061L304.092 130.322C304.092 130.322 305.504 96.3738 289.674 94.3229Z" fill="#61A5B0"/>
<path opacity="0.1" d="M277.008 142.354C277.008 142.354 289.866 158.762 295.315 155.134C300.764 151.506 277.008 142.354 277.008 142.354Z" fill="black"/>
<path opacity="0.1" d="M281.848 129.722C283.21 130.196 294.407 146.456 300.154 144.531C305.902 142.605 281.848 129.722 281.848 129.722Z" fill="black"/>
<path opacity="0.1" d="M285.026 157.65C285.026 157.65 285.786 166.965 295.01 165.699C304.234 164.433 285.026 157.65 285.026 157.65Z" fill="black"/>
<path opacity="0.1" d="M244.262 82.5283L239.274 94.1307L245.504 87.5336L244.262 82.5283Z" fill="black"/>
<path d="M244.262 81.8984L239.274 93.5008L245.504 86.9037L244.262 81.8984Z" fill="#F0F3F7"/>
<path opacity="0.3" d="M224.174 220.808L220.456 219.986L213.63 206.607L214.318 201.824L224.174 220.808Z" fill="black"/>
<path opacity="0.3" d="M288.893 220.113L288.077 224.548V224.555L278.399 232.796L274.745 231.989L288.893 220.113Z" fill="black"/>
<path opacity="0.1" d="M136.401 168.336C134.528 168.662 132.711 168.958 131.051 169.18C121.827 170.446 99.8869 159.081 99.8869 159.081C99.8869 159.081 73.1151 135.72 65.4021 113.626C57.6891 91.5321 74.6264 88.215 74.6264 88.215C81.0125 84.4241 94.8987 94.9973 96.8642 96.7373C98.8297 98.4772 100.497 102.89 100.341 105.733C100.185 108.577 104.882 112.205 104.882 112.205C104.882 112.205 112.9 126.724 114.866 128.301C116.831 129.878 117.285 131.3 117.889 133.988C118.492 136.675 123.785 138.882 126.056 138.719C128.326 138.556 131.023 139.511 131.023 140.77C131.023 141.784 133.244 142.288 135.067 142.451C135.606 150.544 136.139 161.146 136.401 168.336Z" fill="black"/>
<path opacity="0.1" d="M136.316 166.025C134.897 166.262 133.534 166.477 132.257 166.654C123.033 167.921 101.1 156.555 101.1 156.555C101.1 156.555 74.3284 133.195 66.6154 111.101C58.9024 89.0067 75.8398 85.6896 75.8398 85.6896C82.2258 81.8987 96.1049 92.4719 98.0704 94.2119C100.036 95.9519 101.703 100.365 101.554 103.208C101.405 106.051 106.088 109.679 106.088 109.679C106.088 109.679 114.107 124.199 116.072 125.776C118.038 127.353 118.492 128.775 119.102 131.462C119.712 134.15 124.998 136.349 127.269 136.194C129.54 136.038 132.236 136.986 132.236 138.245C132.236 138.985 133.499 139.481 134.904 139.725C134.961 140.584 135.01 141.495 135.074 142.443C135.543 149.721 136.025 159.006 136.316 166.025Z" fill="black"/>
<path opacity="0.1" d="M171.404 150.128L170.829 164.314H170.212L168.935 163.574L169.091 151.35C169.836 150.892 170.609 150.484 171.404 150.128V150.128Z" fill="black"/>
<path d="M74.6264 86.948C74.6264 86.948 57.6891 90.265 65.4021 112.359C73.1151 134.453 99.8869 157.821 99.8869 157.821C99.8869 157.821 121.82 169.179 131.051 167.92C140.282 166.662 154.339 163.344 156.155 163.818C157.972 164.292 170.226 164.292 170.226 164.292L170.829 149.484L156.638 148.692L149.379 147.114C149.379 147.114 146.803 144.893 145.292 145.219C143.781 145.545 140.609 143.324 140.609 143.324C140.609 143.324 138.182 141.273 136.351 141.273C134.521 141.273 131.058 140.799 131.058 139.54C131.058 138.281 128.333 137.319 126.091 137.489C123.849 137.659 118.492 135.438 117.867 132.721C117.243 130.003 116.81 128.619 114.845 127.042C112.879 125.465 104.861 110.938 104.861 110.938C104.861 110.938 100.171 107.309 100.32 104.474C100.469 101.638 98.8084 97.2102 96.8429 95.4702C94.8774 93.7302 80.9699 83.1644 74.6264 86.948Z" fill="#DCE6F2"/>
<path opacity="0.1" d="M118.194 137.771C118.194 137.771 111.687 144.56 113.347 145.819L118.194 137.771Z" fill="black"/>
<path opacity="0.1" d="M125.147 143.139C125.147 143.139 116.675 149.928 118.946 150.402C121.216 150.876 125.147 143.139 125.147 143.139Z" fill="black"/>
<path opacity="0.1" d="M110.772 153.208C111.985 153.845 129.979 165.055 136.791 164.892L110.772 153.208Z" fill="black"/>
<path opacity="0.1" d="M111.992 78.2707C111.992 78.2707 108.813 89.1622 107.6 89.1622C106.649 89.1622 90.6839 75.6718 84.0211 70.0002L84.312 69.7484C84.312 69.7484 84.9151 64.8543 87.3347 62.3442C89.7543 59.8342 111.992 78.2707 111.992 78.2707Z" fill="black"/>
<path d="M111.382 77.0041C111.382 77.0041 108.21 87.8957 106.997 87.8957C106.039 87.8957 90.0736 74.4052 83.4108 68.7336L83.7018 68.4818C83.7018 68.4818 84.312 63.5877 86.7316 61.0776C89.1512 58.5676 111.382 77.0041 111.382 77.0041Z" fill="#DCE6F2"/>
<g opacity="0.15">
<path opacity="0.15" d="M68.5454 41.8047C70.6741 46.8766 76.5351 49.3347 79.9339 53.3774C77.9117 48.4092 72.001 45.9732 68.5454 41.8047Z" fill="black"/>
<path opacity="0.15" d="M90.2368 53.4881C89.3925 55.1837 87.3986 56.0056 85.5821 55.9685C83.9672 55.8476 82.386 55.4263 80.9131 54.7246C81.4474 55.5465 81.8545 56.451 82.1194 57.4049C83.776 58.2356 85.5661 58.7378 87.3986 58.8858C89.2364 58.9302 91.2089 58.1083 92.0533 56.4054C93.4086 53.7028 91.9966 51.3927 90.3433 49.2085C90.6514 49.8797 90.8024 50.6177 90.7839 51.3617C90.7654 52.1057 90.5779 52.8345 90.2368 53.4881V53.4881Z" fill="black"/>
<path opacity="0.15" d="M116.569 16.3783C116.264 14.9567 115.228 13.8387 114.695 12.4985C114.37 11.4616 114.111 10.4028 113.922 9.32954C113.519 7.81187 112.772 6.41769 111.744 5.26465C111.887 5.62909 112.007 6.0025 112.106 6.38268C112.304 7.46071 112.57 8.5242 112.9 9.56648C113.432 10.9066 114.468 12.0247 114.774 13.4463C114.953 14.4506 114.76 15.4886 114.233 16.3495C113.706 17.2104 112.884 17.8296 111.935 18.0813C109.31 18.681 106.316 16.3117 104.059 17.837C102.675 18.7625 102.356 20.695 102.172 22.3979C101.855 25.3596 101.533 28.304 101.207 31.2312C101.143 32.2696 100.932 33.2925 100.582 34.2669C99.4683 36.9324 96.41 38.1837 93.6214 38.1393C92.5319 38.2152 91.4571 37.8431 90.6271 37.1027C90.2236 36.5065 89.7902 35.9331 89.3286 35.3849C85.7807 32.2751 84.7022 39.8792 85.6388 42.0487C86.1078 43.0246 86.6892 43.9371 87.3702 44.766C86.5896 42.3226 87.6824 35.2886 91.145 38.3022C91.6065 38.8486 92.0377 39.4221 92.4365 40.0199C93.2698 40.7595 94.3463 41.1313 95.4379 41.0565C98.2265 41.1009 101.285 39.8496 102.399 37.1841C102.749 36.2074 102.96 35.1819 103.023 34.141C103.345 31.1793 103.666 28.2374 103.988 25.3152C104.173 23.6122 104.492 21.6797 105.869 20.7542C108.132 19.229 111.126 21.5983 113.752 20.9911C114.693 20.7365 115.507 20.119 116.03 19.2631C116.553 18.4072 116.745 17.3764 116.569 16.3783V16.3783Z" fill="black"/>
</g>
<path opacity="0.1" d="M273.666 174.683C272.911 174.83 272.136 174.81 271.389 174.624C268.531 174.022 265.957 172.418 264.094 170.078C263.065 168.775 262.257 166.998 262.881 165.443C263.378 164.192 264.683 163.407 265.01 162.104C265.157 161.308 265.116 160.487 264.889 159.712L264.123 156.062C263.903 155.025 263.52 153.804 262.533 153.559C261.547 153.315 260.724 154.159 259.95 154.796C258.056 156.358 254.416 157.424 252.145 156.136C249.875 154.848 250.506 150.568 250.137 148.25C250.131 148.05 250.083 147.854 249.998 147.675C249.912 147.496 249.79 147.339 249.64 147.214C249.308 147.093 248.951 147.065 248.604 147.132C247.377 147.132 246.398 145.985 246.036 144.756C245.79 143.5 245.655 142.224 245.631 140.942C245.489 139.669 245.05 138.307 243.992 137.648C243.159 137.238 242.234 137.072 241.317 137.166L236.052 137.226C234.754 137.226 233.214 137.137 232.504 136.011C231.795 134.886 232.32 133.287 233.065 132.139C233.81 130.991 234.754 129.851 234.818 128.437C234.882 127.023 234.002 125.801 233.285 124.616C232.874 123.968 232.572 123.252 232.391 122.499L230.88 122.402C230.291 123.661 230.88 125.164 231.589 126.356C232.299 127.548 233.186 128.77 233.122 130.169C233.058 131.569 232.114 132.694 231.369 133.871C230.624 135.049 230.078 136.589 230.816 137.744C231.554 138.899 233.051 138.98 234.364 138.966L239.628 138.899C240.546 138.806 241.471 138.975 242.304 139.388C243.361 140.047 243.808 141.409 243.943 142.682C243.965 143.964 244.103 145.241 244.354 146.496C244.709 147.717 245.695 148.887 246.923 148.865C247.267 148.801 247.621 148.829 247.952 148.946C248.102 149.073 248.224 149.231 248.31 149.412C248.396 149.592 248.443 149.789 248.448 149.99C248.817 152.3 248.136 156.588 250.456 157.876C252.777 159.164 256.396 158.098 258.262 156.536C259.035 155.899 259.894 155.055 260.852 155.292C261.81 155.529 262.221 156.773 262.434 157.794L263.207 161.452C263.432 162.228 263.471 163.049 263.321 163.844C262.966 165.139 261.653 165.932 261.157 167.176C260.539 168.73 261.341 170.515 262.37 171.811C264.246 174.16 266.839 175.765 269.714 176.357C270.461 176.543 271.237 176.563 271.992 176.416C273.211 176.028 274.258 175.198 274.944 174.076C274.556 174.357 274.123 174.562 273.666 174.683Z" fill="black"/>
<path opacity="0.1" d="M328.649 313.56C341.545 313.56 352 311.899 352 309.85C352 307.801 341.545 306.14 328.649 306.14C315.752 306.14 305.297 307.801 305.297 309.85C305.297 311.899 315.752 313.56 328.649 313.56Z" fill="#FFF8AD"/>
<path d="M310.244 274.3C310.244 274.3 306.94 290.22 321.634 292.1L322.543 290.33C322.543 290.33 311.152 279.24 310.244 274.3Z" fill="#FFF8AD"/>
<path d="M327.219 290.2L323.799 290.95L323.461 291.03C323.461 291.03 314.34 283.37 314.456 266.27C315.675 268.791 317.135 271.179 318.813 273.4C322.427 278.35 326.533 284.95 327.219 290.2Z" fill="#FFF8AD"/>
<path d="M328.368 291.84C328.1 292.021 327.796 292.137 327.478 292.18C327.16 292.224 326.837 292.193 326.533 292.09C317.76 289.97 320.736 260.38 320.736 260.38C321.219 260.61 321.702 264.38 323.77 269.24C327.296 277.77 331.19 289.7 328.368 291.84Z" fill="#FFF8AD"/>
<path d="M347.826 274.3C347.826 274.3 348.396 290.22 333.701 292.1L332.784 290.3C332.784 290.3 346.918 279.24 347.826 274.3Z" fill="#FFF8AD"/>
<path d="M343.614 266.3C343.73 283.4 331.885 291.06 331.885 291.06L331.537 290.98L328.127 290.23C328.803 284.98 332.958 278.38 336.523 273.43C338.569 270.737 340.954 268.339 343.614 266.3V266.3Z" fill="#FFF8AD"/>
<path d="M331.489 290.3C330.97 290.964 330.308 291.495 329.557 291.85V291.85C329.324 291.958 329.081 292.042 328.832 292.1C326.678 292.62 325.934 291.01 326.05 288.27C326.253 283.4 329.209 274.95 331.847 268.62C333.117 265.514 334.991 262.713 337.353 260.39C337.353 260.39 337.218 283.42 331.489 290.3Z" fill="#FFF8AD"/>
<path d="M329.035 250C329.035 250 319.238 286 327.673 291.38C336.107 296.76 331.199 253.18 329.035 250Z" fill="#FFF8AD"/>
<path opacity="0.1" d="M310.244 274.3C310.244 274.3 306.94 290.22 321.634 292.1L322.543 290.33C322.543 290.33 311.152 279.24 310.244 274.3Z" fill="black"/>
<path opacity="0.1" d="M327.219 290.2L323.799 290.95L323.461 291.03C323.461 291.03 314.34 283.37 314.456 266.27C315.675 268.791 317.135 271.179 318.813 273.4C322.427 278.35 326.533 284.95 327.219 290.2Z" fill="black"/>
<path opacity="0.1" d="M328.368 291.84C328.1 292.021 327.796 292.137 327.478 292.18C327.16 292.224 326.837 292.193 326.533 292.09C317.76 289.97 320.736 260.38 320.736 260.38C321.219 260.61 321.702 264.38 323.77 269.24C327.296 277.77 331.19 289.7 328.368 291.84Z" fill="black"/>
<path opacity="0.1" d="M347.826 274.3C347.826 274.3 348.396 290.22 333.701 292.1L332.784 290.3C332.784 290.3 346.918 279.24 347.826 274.3Z" fill="black"/>
<path opacity="0.1" d="M343.614 266.3C343.73 283.4 331.885 291.06 331.885 291.06L331.537 290.98L328.127 290.23C328.803 284.98 332.958 278.38 336.523 273.43C338.569 270.737 340.954 268.339 343.614 266.3V266.3Z" fill="black"/>
<path opacity="0.1" d="M331.489 290.3C330.97 290.964 330.308 291.495 329.557 291.85V291.85C329.324 291.958 329.081 292.042 328.832 292.1C326.678 292.62 325.934 291.01 326.05 288.27C326.253 283.4 329.209 274.95 331.847 268.62C333.117 265.514 334.991 262.713 337.353 260.39C337.353 260.39 337.218 283.42 331.489 290.3Z" fill="black"/>
<path opacity="0.1" d="M329.035 250C329.035 250 319.238 286 327.673 291.38C336.107 296.76 331.199 253.18 329.035 250Z" fill="black"/>
<path d="M310.244 274.3C310.244 274.3 308.312 290.22 322.997 292.1L323.905 290.33C323.905 290.33 311.152 279.24 310.244 274.3Z" fill="#FFF8AD"/>
<path d="M328.581 290.2L325.161 290.95L324.823 291.03C324.823 291.03 314.34 283.37 314.427 266.3C314.427 266.3 317.113 269.3 320.147 273.43C323.789 278.35 327.895 284.95 328.581 290.2Z" fill="#FFF8AD"/>
<path opacity="0.1" d="M328.581 290.2L325.161 290.95C321.924 288.01 320.639 280.33 320.176 273.4C323.789 278.35 327.895 284.95 328.581 290.2Z" fill="black"/>
<path d="M329.74 291.84C329.47 292.021 329.164 292.137 328.845 292.181C328.526 292.224 328.201 292.193 327.895 292.09C319.123 289.97 320.726 260.38 320.726 260.38C321.209 260.61 323.103 264.38 325.122 269.24C328.668 277.77 332.552 289.7 329.74 291.84Z" fill="#FFF8AD"/>
<path d="M347.826 274.3C347.826 274.3 349.759 290.22 335.073 292.1L334.165 290.33C334.165 290.33 346.918 279.24 347.826 274.3Z" fill="#FFF8AD"/>
<path d="M343.614 266.3C343.73 283.4 333.247 291.06 333.247 291.06L332.909 290.98L329.489 290.23C330.165 284.98 334.32 278.38 337.895 273.43C340.928 269.3 343.614 266.3 343.614 266.3Z" fill="#FFF8AD"/>
<path opacity="0.1" d="M337.895 273.4C337.45 279.86 336.31 286.97 333.537 290.29C333.348 290.529 333.138 290.75 332.909 290.95L329.489 290.2C330.165 284.95 334.281 278.35 337.895 273.4Z" fill="black"/>
<path d="M332.851 290.3C332.335 290.967 331.672 291.498 330.919 291.85V291.85C330.689 291.957 330.45 292.041 330.204 292.1C328.04 292.62 327.306 291.01 327.412 288.27C327.624 283.4 330.581 274.95 333.209 268.62C335.141 264.07 336.89 260.62 337.353 260.39C337.353 260.38 338.58 283.42 332.851 290.3Z" fill="#FFF8AD"/>
<path opacity="0.1" d="M329.74 291.84C329.241 291.846 328.753 291.684 328.349 291.38C324.224 288.72 324.137 278.74 325.122 269.24C328.668 277.77 332.552 289.7 329.74 291.84Z" fill="black"/>
<path opacity="0.1" d="M332.851 290.3C332.378 291.37 331.74 291.93 330.919 291.85C330.499 291.797 330.098 291.639 329.75 291.39C328.675 290.628 327.858 289.537 327.412 288.27C327.624 283.4 330.581 274.95 333.209 268.62C334.156 277.39 334.474 286.69 332.851 290.3Z" fill="black"/>
<path d="M329.035 250C329.035 250 320.61 286 329.035 291.38C337.46 296.76 331.199 253.18 329.035 250Z" fill="#FFF8AD"/>
<path d="M345.208 289.62H310.128V295.63H315.48L315.615 296.34L317.76 308.01H338.155L340.3 296.34L340.426 295.63H345.208V289.62Z" fill="#4B4770"/>
<path opacity="0.1" d="M345.208 289.62H310.128V295.63H315.48L315.615 296.34L317.76 308.01H338.155L340.3 296.34L340.426 295.63H345.208V289.62Z" fill="black"/>
<path d="M342.252 293.15L341.662 296.34L339.518 308.01H319.123L316.978 296.34L316.388 293.15H342.252Z" fill="#706F73"/>
<path opacity="0.1" d="M342.252 293.15L341.662 296.34H316.978L316.388 293.15H342.252Z" fill="black"/>
<path d="M346.57 289.62H311.49V295.63H346.57V289.62Z" fill="#706F73"/>
<defs>
<linearGradient id="paint0_linear" x1="177.641" y1="433.501" x2="177.641" y2="-0.0141601" gradientUnits="userSpaceOnUse">
<stop stop-color="#808080" stop-opacity="0.25"/>
<stop offset="0.54" stop-color="#808080" stop-opacity="0.12"/>
<stop offset="1" stop-color="#808080" stop-opacity="0.1"/>
</linearGradient>
</defs>
</svg>
